<?xml version="1.0" encoding="utf-8"?>
<!-- Generator: Adobe Illustrator 24.0.1, SVG Export Plug-In . SVG Version: 6.00 Build 0)  -->
<svg version="1.1" id="Layer_1" xmlns="http://www.w3.org/2000/svg" xmlns:xlink="http://www.w3.org/1999/xlink" x="0px" y="0px"
	 viewBox="0 0 256 315" style="enable-background:new 0 0 256 315;" xml:space="preserve">
<style type="text/css">
	.st0{fill:#FFFFFF;stroke:#000000;stroke-miterlimit:10;}
</style>
<g>
	<path class="st0" d="M213.8,167.3c0.4,47.6,41.7,63.4,42.2,63.6c-0.3,1.1-6.6,22.6-21.8,44.7c-13.1,19.2-26.7,38.2-48.1,38.6
		c-21.1,0.4-27.8-12.5-51.9-12.5c-24.1,0-31.6,12.1-51.5,12.9C62,315.5,46.3,294,33.1,274.9c-27-39-47.6-110.3-19.9-158.4
		c13.8-23.9,38.4-39,65.1-39.4c20.3-0.4,39.5,13.7,51.9,13.7c12.4,0,35.7-16.9,60.2-14.4c10.3,0.4,39,4.1,57.5,31.2
		C246.3,108.4,213.4,127.6,213.8,167.3 M174.2,50.5c11-13.3,18.4-31.8,16.4-50.2c-15.8,0.6-35,10.5-46.3,23.8
		c-10.2,11.8-19.1,30.6-16.7,48.6C145.2,74.1,163.3,63.8,174.2,50.5"/>
</g>
</svg>
